<svg xmlns="http://www.w3.org/2000/svg" viewBox="0 0 800 600" width="100%" height="100%">
  <rect width="800" height="600" fill="#FAF8F4" />
  <rect x="24" y="24" width="752" height="552" fill="none" stroke="#5B4033" stroke-width="1" stroke-opacity="0.25" rx="4" />
  <text x="50" y="65" font-family="-apple-system, BlinkMacSystemFont, 'Segoe UI', Roboto, sans-serif" font-size="11" letter-spacing="3" fill="#5B4033" font-weight="600">NOVEQ PACKAGING</text>
  <text x="750" y="65" text-anchor="end" font-family="-apple-system, BlinkMacSystemFont, 'Segoe UI', Roboto, sans-serif" font-size="11" letter-spacing="3" fill="#A99B90" font-weight="500">DROP 001 SUITE</text>

  <!-- Ground Shadow -->
  <ellipse cx="400" cy="460" rx="280" ry="20" fill="#2A1B15" fill-opacity="0.15" />

  <!-- Slim Brown Kraft Box -->
  <g transform="translate(180, 200)">
    <polygon points="0,90 220,10 440,90 220,170" fill="#C4A482" stroke="#5B4033" stroke-width="1.5" />
    <polygon points="0,90 220,170 220,240 0,160" fill="#A78564" stroke="#5B4033" stroke-width="1.5" />
    <polygon points="220,170 440,90 440,160 220,240" fill="#8C6D4F" stroke="#5B4033" stroke-width="1.5" />
    <text x="220" y="85" text-anchor="middle" font-family="-apple-system, BlinkMacSystemFont, 'Segoe UI', Roboto, sans-serif" font-size="16" letter-spacing="4" fill="#2A1B15" font-weight="700">noveq</text>
  </g>

  <!-- Care Card & Shopping Bag Impression -->
  <g transform="translate(480, 310)">
    <rect x="0" y="0" width="130" height="90" fill="#F4F1EA" stroke="#5B4033" stroke-width="1" rx="2" transform="rotate(-6)" />
    <text x="15" y="30" font-family="-apple-system, BlinkMacSystemFont, 'Segoe UI', Roboto, sans-serif" font-size="9" letter-spacing="2" fill="#5B4033" font-weight="600" transform="rotate(-6)">THANK YOU</text>
    <text x="15" y="48" font-family="-apple-system, BlinkMacSystemFont, 'Segoe UI', Roboto, sans-serif" font-size="8" fill="#A99B90" transform="rotate(-6)">Crafted to move.</text>
  </g>

  <text x="50" y="525" font-family="-apple-system, BlinkMacSystemFont, 'Segoe UI', Roboto, sans-serif" font-size="18" fill="#0A0A0A" font-weight="700">First-Release Packaging</text>
  <text x="50" y="545" font-family="-apple-system, BlinkMacSystemFont, 'Segoe UI', Roboto, sans-serif" font-size="13" fill="#A99B90" font-weight="400">Slim brown kraft box · Tissue · Thank-you & care card · Branded bag</text>
</svg>